<svg width="34" height="34" viewBox="0 0 34 34" fill="none" xmlns="http://www.w3.org/2000/svg">
<g id="Frame">
<path id="Vector" d="M21.5671 21.9694L18.4325 28.557C18.2307 28.981 17.7236 29.1611 17.2997 28.9594C17.2052 28.9145 17.1198 28.8524 17.0478 28.7763L12.0308 23.4798C11.8965 23.338 11.7175 23.2468 11.5239 23.2216L4.28997 22.276C3.82448 22.215 3.49647 21.7885 3.55731 21.323C3.57087 21.2191 3.6035 21.1188 3.65352 21.0269L7.14052 14.6187C7.23386 14.4472 7.2653 14.2487 7.22953 14.0567L5.89341 6.8847C5.80743 6.4232 6.11186 5.97938 6.57337 5.8934C6.67626 5.87424 6.78182 5.87424 6.88471 5.8934L14.0568 7.22952C14.2488 7.26528 14.4472 7.23385 14.6187 7.14051L21.0268 3.65351C21.4392 3.42913 21.9554 3.5815 22.1797 3.99385C22.2298 4.0858 22.2624 4.18618 22.2759 4.28996L23.2215 11.5239C23.2469 11.7175 23.3381 11.8965 23.4798 12.0308L28.7764 17.0477C29.1173 17.3706 29.1318 17.9087 28.809 18.2494C28.737 18.3254 28.6516 18.3875 28.5571 18.4324L21.9695 21.567C21.7931 21.6511 21.651 21.793 21.5671 21.9694ZM22.6959 24.6994L24.6994 22.696L30.7099 28.7063L28.7064 30.7098L22.6959 24.6994Z" fill="white"/>
</g>
</svg>
