<svg width="34" height="34" viewBox="0 0 34 34" fill="none" xmlns="http://www.w3.org/2000/svg">
<g id="material-symbols:post-add-rounded">
<path id="Vector" d="M7.08334 29.75C6.30417 29.75 5.63692 29.4723 5.08159 28.917C4.52625 28.3617 4.24906 27.6949 4.25 26.9167V7.08334C4.25 6.30417 4.52767 5.63692 5.083 5.08159C5.63834 4.52625 6.30511 4.24906 7.08334 4.25H18.4167C18.8181 4.25 19.1548 4.38601 19.4268 4.65801C19.6988 4.93001 19.8343 5.26623 19.8333 5.66667C19.8333 6.06806 19.6973 6.40475 19.4253 6.67675C19.1533 6.94875 18.8171 7.08428 18.4167 7.08334H7.08334V26.9167H26.9167V15.5833C26.9167 15.1819 27.0527 14.8453 27.3247 14.5733C27.5967 14.3013 27.9329 14.1657 28.3333 14.1667C28.7347 14.1667 29.0714 14.3027 29.3434 14.5747C29.6154 14.8467 29.7509 15.1829 29.75 15.5833V26.9167C29.75 27.6958 29.4723 28.3631 28.917 28.9184C28.3617 29.4738 27.6949 29.7509 26.9167 29.75H7.08334ZM12.75 24.0833C12.3486 24.0833 12.0119 23.9473 11.7399 23.6753C11.4679 23.4033 11.3324 23.0671 11.3333 22.6667C11.3333 22.2653 11.4693 21.9286 11.7413 21.6566C12.0133 21.3846 12.3496 21.2491 12.75 21.25H21.25C21.6514 21.25 21.9881 21.386 22.2601 21.658C22.5321 21.93 22.6676 22.2662 22.6667 22.6667C22.6667 23.0681 22.5307 23.4048 22.2587 23.6768C21.9867 23.9488 21.6504 24.0843 21.25 24.0833H12.75ZM12.75 19.8333C12.3486 19.8333 12.0119 19.6973 11.7399 19.4253C11.4679 19.1533 11.3324 18.8171 11.3333 18.4167C11.3333 18.0153 11.4693 17.6786 11.7413 17.4066C12.0133 17.1346 12.3496 16.9991 12.75 17H21.25C21.6514 17 21.9881 17.136 22.2601 17.408C22.5321 17.68 22.6676 18.0162 22.6667 18.4167C22.6667 18.8181 22.5307 19.1548 22.2587 19.4268C21.9867 19.6988 21.6504 19.8343 21.25 19.8333H12.75ZM12.75 15.5833C12.3486 15.5833 12.0119 15.4473 11.7399 15.1753C11.4679 14.9033 11.3324 14.5671 11.3333 14.1667C11.3333 13.7653 11.4693 13.4286 11.7413 13.1566C12.0133 12.8846 12.3496 12.7491 12.75 12.75H21.25C21.6514 12.75 21.9881 12.886 22.2601 13.158C22.5321 13.43 22.6676 13.7662 22.6667 14.1667C22.6667 14.5681 22.5307 14.9048 22.2587 15.1768C21.9867 15.4488 21.6504 15.5843 21.25 15.5833H12.75ZM25.5 12.75C25.0986 12.75 24.7619 12.614 24.4899 12.342C24.2179 12.07 24.0824 11.7338 24.0833 11.3333V9.91667H22.6667C22.2653 9.91667 21.9286 9.78067 21.6566 9.50867C21.3846 9.23667 21.2491 8.90045 21.25 8.5C21.25 8.09862 21.386 7.76192 21.658 7.48992C21.93 7.21792 22.2662 7.08239 22.6667 7.08334H24.0833V5.66667C24.0833 5.26528 24.2193 4.92859 24.4913 4.65659C24.7633 4.38459 25.0996 4.24906 25.5 4.25C25.9014 4.25 26.2381 4.38601 26.5101 4.65801C26.7821 4.93001 26.9176 5.26623 26.9167 5.66667V7.08334H28.3333C28.7347 7.08334 29.0714 7.21934 29.3434 7.49134C29.6154 7.76334 29.7509 8.09956 29.75 8.5C29.75 8.90139 29.614 9.23809 29.342 9.51009C29.07 9.78209 28.7338 9.91762 28.3333 9.91667H26.9167V11.3333C26.9167 11.7347 26.7807 12.0714 26.5087 12.3434C26.2367 12.6154 25.9004 12.7509 25.5 12.75Z" fill="white"/>
</g>
</svg>
